<mxfile host="Electron" modified="2024-04-21T00:04:51.051Z" agent="Mozilla/5.0 (Windows NT 10.0; Win64; x64) AppleWebKit/537.36 (KHTML, like Gecko) draw.io/24.2.5 Chrome/120.0.6099.109 Electron/28.1.0 Safari/537.36" etag="CqvRc3EnruoYdiBkv-9U" version="24.2.5" type="device">
  <diagram name="Página-1" id="CGBl4Py1_vDuxyl7M4T7">
    <mxGraphModel dx="1420" dy="830" grid="1" gridSize="10" guides="1" tooltips="1" connect="1" arrows="1" fold="1" page="1" pageScale="1" pageWidth="827" pageHeight="1169" background="#CCE5FF" math="0" shadow="0">
      <root>
        <mxCell id="0" />
        <mxCell id="1" parent="0" />
        <mxCell id="C4_C153arylaI4A7dzpY-1" value="&lt;b style=&quot;font-size: 16px;&quot;&gt;&lt;font style=&quot;font-size: 16px;&quot; color=&quot;#000000&quot; face=&quot;Comic Sans MS&quot;&gt;6 Hacer un programa para ingresar una lista de números que finaliza cuando se&lt;br&gt;ingresa un cero, luego informar cuántos son positivos y cuántos son negativos.&lt;br&gt;Ejemplo: 4, -3, 8, -5, 18, 20, 0. Se listará Positivos: 4 Negativos: 2.&lt;br&gt;Para resolver este ejercicio sugerimos resolver antes el TP3 EJ 7.&lt;/font&gt;&lt;/b&gt;" style="text;whiteSpace=wrap;html=1;fontFamily=Architects Daughter;fontSource=https%3A%2F%2Ffonts.googleapis.com%2Fcss%3Ffamily%3DArchitects%2BDaughter;" vertex="1" parent="1">
          <mxGeometry x="99" width="630" height="100" as="geometry" />
        </mxCell>
        <mxCell id="C4_C153arylaI4A7dzpY-82" value="" style="group;aspect=fixed;" vertex="1" connectable="0" parent="1">
          <mxGeometry x="140" y="160" width="450" height="810" as="geometry" />
        </mxCell>
        <mxCell id="C4_C153arylaI4A7dzpY-52" value="" style="line;strokeWidth=2;direction=south;html=1;hachureGap=4;fontFamily=Architects Daughter;fontSource=https://fonts.googleapis.com/css?family=Architects+Daughter;strokeColor=#000000;container=0;" vertex="1" parent="C4_C153arylaI4A7dzpY-82">
          <mxGeometry x="220" y="120" width="10" height="30" as="geometry" />
        </mxCell>
        <mxCell id="C4_C153arylaI4A7dzpY-55" value="" style="line;strokeWidth=2;direction=south;html=1;hachureGap=4;fontFamily=Architects Daughter;fontSource=https://fonts.googleapis.com/css?family=Architects+Daughter;strokeColor=#000000;container=0;" vertex="1" parent="C4_C153arylaI4A7dzpY-82">
          <mxGeometry x="220" y="190" width="10" height="40" as="geometry" />
        </mxCell>
        <mxCell id="C4_C153arylaI4A7dzpY-69" value="" style="line;strokeWidth=2;direction=south;html=1;hachureGap=4;fontFamily=Architects Daughter;fontSource=https://fonts.googleapis.com/css?family=Architects+Daughter;strokeColor=#000000;container=0;" vertex="1" parent="C4_C153arylaI4A7dzpY-82">
          <mxGeometry x="220" y="640" width="10" height="40" as="geometry" />
        </mxCell>
        <mxCell id="C4_C153arylaI4A7dzpY-2" value="" style="strokeWidth=2;html=1;shape=mxgraph.flowchart.start_2;whiteSpace=wrap;rounded=0;labelBackgroundColor=none;strokeColor=#000000;align=center;verticalAlign=middle;fontFamily=Helvetica;fontSize=12;fontColor=default;fillColor=#d5e8d4;container=0;" vertex="1" parent="C4_C153arylaI4A7dzpY-82">
          <mxGeometry x="200" width="50" height="50" as="geometry" />
        </mxCell>
        <mxCell id="C4_C153arylaI4A7dzpY-4" value="&lt;font face=&quot;Comic Sans MS&quot; color=&quot;#000000&quot;&gt;&lt;span style=&quot;font-size: 22px;&quot;&gt;&lt;b&gt;I&lt;/b&gt;&lt;/span&gt;&lt;/font&gt;" style="text;strokeColor=none;align=center;fillColor=none;html=1;verticalAlign=middle;whiteSpace=wrap;rounded=0;fontFamily=Architects Daughter;fontSource=https%3A%2F%2Ffonts.googleapis.com%2Fcss%3Ffamily%3DArchitects%2BDaughter;container=0;" vertex="1" parent="C4_C153arylaI4A7dzpY-82">
          <mxGeometry x="205" y="10" width="40" height="30" as="geometry" />
        </mxCell>
        <mxCell id="C4_C153arylaI4A7dzpY-8" value="" style="rounded=0;whiteSpace=wrap;html=1;labelBackgroundColor=none;strokeColor=#0f100e;strokeWidth=2;align=center;verticalAlign=middle;fontFamily=Helvetica;fontSize=12;fontColor=default;fillColor=#d5e8d4;container=0;" vertex="1" parent="C4_C153arylaI4A7dzpY-82">
          <mxGeometry x="90" y="80" width="270" height="40" as="geometry" />
        </mxCell>
        <mxCell id="C4_C153arylaI4A7dzpY-9" value="&lt;font face=&quot;Comic Sans MS&quot; color=&quot;#000000&quot;&gt;&lt;span style=&quot;font-size: 14px;&quot;&gt;&lt;b&gt;int num, positivo = 0, negativo = 0&lt;/b&gt;&lt;/span&gt;&lt;/font&gt;" style="text;strokeColor=none;align=center;fillColor=none;html=1;verticalAlign=middle;whiteSpace=wrap;rounded=0;fontFamily=Architects Daughter;fontSource=https%3A%2F%2Ffonts.googleapis.com%2Fcss%3Ffamily%3DArchitects%2BDaughter;container=0;" vertex="1" parent="C4_C153arylaI4A7dzpY-82">
          <mxGeometry x="106" y="86" width="240" height="30" as="geometry" />
        </mxCell>
        <mxCell id="C4_C153arylaI4A7dzpY-53" value="" style="line;strokeWidth=2;direction=south;html=1;hachureGap=4;fontFamily=Architects Daughter;fontSource=https://fonts.googleapis.com/css?family=Architects+Daughter;strokeColor=#000000;container=0;" vertex="1" parent="C4_C153arylaI4A7dzpY-82">
          <mxGeometry x="221" y="50" width="10" height="30" as="geometry" />
        </mxCell>
        <mxCell id="C4_C153arylaI4A7dzpY-11" value="" style="shape=trapezoid;perimeter=trapezoidPerimeter;whiteSpace=wrap;html=1;fixedSize=1;rounded=0;labelBackgroundColor=none;strokeColor=#121211;strokeWidth=2;align=center;verticalAlign=middle;fontFamily=Helvetica;fontSize=12;fontColor=default;fillColor=#d5e8d4;direction=west;container=0;" vertex="1" parent="C4_C153arylaI4A7dzpY-82">
          <mxGeometry x="160" y="150" width="130" height="40" as="geometry">
            <mxRectangle x="-1020" y="-650" width="50" height="40" as="alternateBounds" />
          </mxGeometry>
        </mxCell>
        <mxCell id="C4_C153arylaI4A7dzpY-12" value="&lt;font size=&quot;1&quot; color=&quot;#000000&quot; face=&quot;Comic Sans MS&quot;&gt;&lt;b style=&quot;font-size: 17px;&quot;&gt;num&lt;/b&gt;&lt;/font&gt;" style="text;strokeColor=none;align=center;fillColor=none;html=1;verticalAlign=middle;whiteSpace=wrap;rounded=0;fontFamily=Architects Daughter;fontSource=https%3A%2F%2Ffonts.googleapis.com%2Fcss%3Ffamily%3DArchitects%2BDaughter;container=0;" vertex="1" parent="C4_C153arylaI4A7dzpY-82">
          <mxGeometry x="194" y="153" width="60" height="30" as="geometry" />
        </mxCell>
        <mxCell id="C4_C153arylaI4A7dzpY-15" value="" style="whiteSpace=wrap;html=1;rounded=0;labelBackgroundColor=none;strokeColor=#1A1A1A;strokeWidth=3;align=center;verticalAlign=middle;fontFamily=Helvetica;fontSize=12;fontColor=default;fillColor=#d5e8d4;container=0;" vertex="1" parent="C4_C153arylaI4A7dzpY-82">
          <mxGeometry y="230" width="450" height="410" as="geometry" />
        </mxCell>
        <mxCell id="C4_C153arylaI4A7dzpY-16" value="" style="edgeStyle=none;orthogonalLoop=1;jettySize=auto;html=1;rounded=0;strokeColor=#000000;fontFamily=Helvetica;fontSize=12;fontColor=default;fillColor=#B2C9AB;startArrow=none;startFill=0;endArrow=none;endFill=0;endSize=7;strokeWidth=2;" edge="1" parent="C4_C153arylaI4A7dzpY-82">
          <mxGeometry width="80" relative="1" as="geometry">
            <mxPoint x="450" y="273" as="sourcePoint" />
            <mxPoint y="273.1629032258064" as="targetPoint" />
            <Array as="points" />
          </mxGeometry>
        </mxCell>
        <mxCell id="C4_C153arylaI4A7dzpY-25" value="&lt;b&gt;&lt;font color=&quot;#000000&quot; style=&quot;font-size: 17px;&quot; face=&quot;Comic Sans MS&quot;&gt;num != 0&lt;/font&gt;&lt;/b&gt;" style="text;strokeColor=none;align=center;fillColor=none;html=1;verticalAlign=middle;whiteSpace=wrap;rounded=0;fontFamily=Architects Daughter;fontSource=https%3A%2F%2Ffonts.googleapis.com%2Fcss%3Ffamily%3DArchitects%2BDaughter;container=0;" vertex="1" parent="C4_C153arylaI4A7dzpY-82">
          <mxGeometry x="173" y="238" width="100" height="30" as="geometry" />
        </mxCell>
        <mxCell id="C4_C153arylaI4A7dzpY-57" value="" style="line;strokeWidth=2;html=1;perimeter=backbonePerimeter;points=[];outlineConnect=0;hachureGap=4;fontFamily=Architects Daughter;fontSource=https://fonts.googleapis.com/css?family=Architects+Daughter;strokeColor=#000000;container=0;" vertex="1" parent="C4_C153arylaI4A7dzpY-82">
          <mxGeometry x="130" y="335" width="43" height="10" as="geometry" />
        </mxCell>
        <mxCell id="C4_C153arylaI4A7dzpY-59" value="" style="line;strokeWidth=2;html=1;perimeter=backbonePerimeter;points=[];outlineConnect=0;hachureGap=4;fontFamily=Architects Daughter;fontSource=https://fonts.googleapis.com/css?family=Architects+Daughter;strokeColor=#000000;container=0;" vertex="1" parent="C4_C153arylaI4A7dzpY-82">
          <mxGeometry x="274" y="335" width="46" height="10" as="geometry" />
        </mxCell>
        <mxCell id="C4_C153arylaI4A7dzpY-54" value="" style="line;strokeWidth=2;direction=south;html=1;hachureGap=4;fontFamily=Architects Daughter;fontSource=https://fonts.googleapis.com/css?family=Architects+Daughter;strokeColor=#000000;container=0;" vertex="1" parent="C4_C153arylaI4A7dzpY-82">
          <mxGeometry x="127" y="338" width="10" height="62" as="geometry" />
        </mxCell>
        <mxCell id="C4_C153arylaI4A7dzpY-51" value="" style="line;strokeWidth=2;direction=south;html=1;hachureGap=4;fontFamily=Architects Daughter;fontSource=https://fonts.googleapis.com/css?family=Architects+Daughter;strokeColor=#000000;container=0;" vertex="1" parent="C4_C153arylaI4A7dzpY-82">
          <mxGeometry x="318" y="339" width="10" height="41" as="geometry" />
        </mxCell>
        <mxCell id="C4_C153arylaI4A7dzpY-49" value="" style="line;strokeWidth=2;direction=south;html=1;hachureGap=4;fontFamily=Architects Daughter;fontSource=https://fonts.googleapis.com/css?family=Architects+Daughter;strokeColor=#000000;container=0;" vertex="1" parent="C4_C153arylaI4A7dzpY-82">
          <mxGeometry x="127" y="425" width="10" height="135" as="geometry" />
        </mxCell>
        <mxCell id="C4_C153arylaI4A7dzpY-58" value="" style="line;strokeWidth=2;html=1;perimeter=backbonePerimeter;points=[];outlineConnect=0;hachureGap=4;fontFamily=Architects Daughter;fontSource=https://fonts.googleapis.com/css?family=Architects+Daughter;strokeColor=#000000;container=0;" vertex="1" parent="C4_C153arylaI4A7dzpY-82">
          <mxGeometry x="230" y="426" width="43" height="10" as="geometry" />
        </mxCell>
        <mxCell id="C4_C153arylaI4A7dzpY-56" value="" style="line;strokeWidth=2;html=1;perimeter=backbonePerimeter;points=[];outlineConnect=0;hachureGap=4;fontFamily=Architects Daughter;fontSource=https://fonts.googleapis.com/css?family=Architects+Daughter;strokeColor=#000000;container=0;" vertex="1" parent="C4_C153arylaI4A7dzpY-82">
          <mxGeometry x="373" y="426" width="47" height="10" as="geometry" />
        </mxCell>
        <mxCell id="C4_C153arylaI4A7dzpY-48" value="" style="line;strokeWidth=2;direction=south;html=1;hachureGap=4;fontFamily=Architects Daughter;fontSource=https://fonts.googleapis.com/css?family=Architects+Daughter;strokeColor=#000000;container=0;" vertex="1" parent="C4_C153arylaI4A7dzpY-82">
          <mxGeometry x="227" y="430" width="10" height="50" as="geometry" />
        </mxCell>
        <mxCell id="C4_C153arylaI4A7dzpY-50" value="" style="line;strokeWidth=2;direction=south;html=1;hachureGap=4;fontFamily=Architects Daughter;fontSource=https://fonts.googleapis.com/css?family=Architects+Daughter;strokeColor=#000000;container=0;" vertex="1" parent="C4_C153arylaI4A7dzpY-82">
          <mxGeometry x="412" y="431" width="10" height="99" as="geometry" />
        </mxCell>
        <mxCell id="C4_C153arylaI4A7dzpY-66" value="" style="line;strokeWidth=2;direction=south;html=1;hachureGap=4;fontFamily=Architects Daughter;fontSource=https://fonts.googleapis.com/css?family=Architects+Daughter;strokeColor=#000000;container=0;" vertex="1" parent="C4_C153arylaI4A7dzpY-82">
          <mxGeometry x="227" y="505" width="10" height="25" as="geometry" />
        </mxCell>
        <mxCell id="C4_C153arylaI4A7dzpY-62" value="" style="line;strokeWidth=2;html=1;perimeter=backbonePerimeter;points=[];outlineConnect=0;hachureGap=4;fontFamily=Architects Daughter;fontSource=https://fonts.googleapis.com/css?family=Architects+Daughter;strokeColor=#000000;container=0;" vertex="1" parent="C4_C153arylaI4A7dzpY-82">
          <mxGeometry x="228" y="523" width="192" height="10" as="geometry" />
        </mxCell>
        <mxCell id="C4_C153arylaI4A7dzpY-68" value="" style="line;strokeWidth=2;direction=south;html=1;hachureGap=4;fontFamily=Architects Daughter;fontSource=https://fonts.googleapis.com/css?family=Architects+Daughter;strokeColor=#000000;container=0;" vertex="1" parent="C4_C153arylaI4A7dzpY-82">
          <mxGeometry x="319" y="528" width="10" height="32" as="geometry" />
        </mxCell>
        <mxCell id="C4_C153arylaI4A7dzpY-65" value="" style="line;strokeWidth=2;html=1;perimeter=backbonePerimeter;points=[];outlineConnect=0;hachureGap=4;fontFamily=Architects Daughter;fontSource=https://fonts.googleapis.com/css?family=Architects+Daughter;strokeColor=#000000;container=0;" vertex="1" parent="C4_C153arylaI4A7dzpY-82">
          <mxGeometry x="130" y="555" width="195" height="10" as="geometry" />
        </mxCell>
        <mxCell id="C4_C153arylaI4A7dzpY-67" value="" style="line;strokeWidth=2;direction=south;html=1;hachureGap=4;fontFamily=Architects Daughter;fontSource=https://fonts.googleapis.com/css?family=Architects+Daughter;strokeColor=#000000;container=0;" vertex="1" parent="C4_C153arylaI4A7dzpY-82">
          <mxGeometry x="220" y="560" width="10" height="30" as="geometry" />
        </mxCell>
        <mxCell id="C4_C153arylaI4A7dzpY-70" value="&lt;b&gt;&lt;font color=&quot;#000000&quot; style=&quot;font-size: 14px;&quot; face=&quot;Comic Sans MS&quot;&gt;V&lt;/font&gt;&lt;/b&gt;" style="text;strokeColor=none;align=center;fillColor=none;html=1;verticalAlign=middle;whiteSpace=wrap;rounded=0;fontFamily=Architects Daughter;fontSource=https%3A%2F%2Ffonts.googleapis.com%2Fcss%3Ffamily%3DArchitects%2BDaughter;container=0;" vertex="1" parent="C4_C153arylaI4A7dzpY-82">
          <mxGeometry x="117" y="316" width="30" height="30" as="geometry" />
        </mxCell>
        <mxCell id="C4_C153arylaI4A7dzpY-73" value="&lt;b&gt;&lt;font color=&quot;#000000&quot; style=&quot;font-size: 14px;&quot; face=&quot;Comic Sans MS&quot;&gt;F&lt;/font&gt;&lt;/b&gt;" style="text;strokeColor=none;align=center;fillColor=none;html=1;verticalAlign=middle;whiteSpace=wrap;rounded=0;fontFamily=Architects Daughter;fontSource=https://fonts.googleapis.com/css?family=Architects+Daughter;container=0;" vertex="1" parent="C4_C153arylaI4A7dzpY-82">
          <mxGeometry x="304" y="317" width="30" height="30" as="geometry" />
        </mxCell>
        <mxCell id="C4_C153arylaI4A7dzpY-71" value="&lt;b&gt;&lt;font color=&quot;#000000&quot; style=&quot;font-size: 14px;&quot; face=&quot;Comic Sans MS&quot;&gt;F&lt;/font&gt;&lt;/b&gt;" style="text;strokeColor=none;align=center;fillColor=none;html=1;verticalAlign=middle;whiteSpace=wrap;rounded=0;fontFamily=Architects Daughter;fontSource=https://fonts.googleapis.com/css?family=Architects+Daughter;container=0;" vertex="1" parent="C4_C153arylaI4A7dzpY-82">
          <mxGeometry x="398" y="408" width="30" height="30" as="geometry" />
        </mxCell>
        <mxCell id="C4_C153arylaI4A7dzpY-72" value="&lt;b&gt;&lt;font color=&quot;#000000&quot; style=&quot;font-size: 14px;&quot; face=&quot;Comic Sans MS&quot;&gt;V&lt;/font&gt;&lt;/b&gt;" style="text;strokeColor=none;align=center;fillColor=none;html=1;verticalAlign=middle;whiteSpace=wrap;rounded=0;fontFamily=Architects Daughter;fontSource=https://fonts.googleapis.com/css?family=Architects+Daughter;container=0;" vertex="1" parent="C4_C153arylaI4A7dzpY-82">
          <mxGeometry x="218" y="408" width="30" height="30" as="geometry" />
        </mxCell>
        <mxCell id="C4_C153arylaI4A7dzpY-27" value="" style="rhombus;whiteSpace=wrap;html=1;rounded=0;labelBackgroundColor=none;strokeColor=#0F140C;strokeWidth=2;align=center;verticalAlign=middle;fontFamily=Helvetica;fontSize=12;fontColor=default;fillColor=#d5e8d4;container=0;" vertex="1" parent="C4_C153arylaI4A7dzpY-82">
          <mxGeometry x="173" y="290" width="100" height="100" as="geometry" />
        </mxCell>
        <mxCell id="C4_C153arylaI4A7dzpY-28" value="&lt;b&gt;&lt;font style=&quot;font-size: 14px;&quot; color=&quot;#000000&quot; face=&quot;Comic Sans MS&quot;&gt;num&lt;/font&gt;&lt;/b&gt;&lt;div&gt;&lt;b&gt;&lt;font style=&quot;font-size: 14px;&quot; color=&quot;#000000&quot; face=&quot;Comic Sans MS&quot;&gt;&amp;gt;&lt;/font&gt;&lt;/b&gt;&lt;/div&gt;&lt;div&gt;&lt;b&gt;&lt;font style=&quot;font-size: 14px;&quot; color=&quot;#000000&quot; face=&quot;Comic Sans MS&quot;&gt;0&lt;/font&gt;&lt;/b&gt;&lt;/div&gt;" style="text;strokeColor=none;align=center;fillColor=none;html=1;verticalAlign=middle;whiteSpace=wrap;rounded=0;fontFamily=Architects Daughter;fontSource=https://fonts.googleapis.com/css?family=Architects+Daughter;container=0;" vertex="1" parent="C4_C153arylaI4A7dzpY-82">
          <mxGeometry x="203" y="315" width="40" height="50" as="geometry" />
        </mxCell>
        <mxCell id="C4_C153arylaI4A7dzpY-30" value="" style="rhombus;whiteSpace=wrap;html=1;rounded=0;labelBackgroundColor=none;strokeColor=#0F140C;strokeWidth=2;align=center;verticalAlign=middle;fontFamily=Helvetica;fontSize=12;fontColor=default;fillColor=#d5e8d4;container=0;" vertex="1" parent="C4_C153arylaI4A7dzpY-82">
          <mxGeometry x="273" y="380" width="100" height="100" as="geometry" />
        </mxCell>
        <mxCell id="C4_C153arylaI4A7dzpY-31" value="&lt;b&gt;&lt;font style=&quot;font-size: 14px;&quot; color=&quot;#000000&quot; face=&quot;Comic Sans MS&quot;&gt;num&lt;/font&gt;&lt;/b&gt;&lt;div&gt;&lt;font face=&quot;Comic Sans MS&quot; color=&quot;#000000&quot;&gt;&lt;span style=&quot;font-size: 14px;&quot;&gt;&lt;b&gt;&amp;lt;&lt;/b&gt;&lt;/span&gt;&lt;/font&gt;&lt;/div&gt;&lt;div&gt;&lt;b&gt;&lt;font style=&quot;font-size: 14px;&quot; color=&quot;#000000&quot; face=&quot;Comic Sans MS&quot;&gt;0&lt;/font&gt;&lt;/b&gt;&lt;/div&gt;" style="text;strokeColor=none;align=center;fillColor=none;html=1;verticalAlign=middle;whiteSpace=wrap;rounded=0;fontFamily=Architects Daughter;fontSource=https://fonts.googleapis.com/css?family=Architects+Daughter;container=0;" vertex="1" parent="C4_C153arylaI4A7dzpY-82">
          <mxGeometry x="303" y="405" width="40" height="50" as="geometry" />
        </mxCell>
        <mxCell id="C4_C153arylaI4A7dzpY-32" value="" style="rounded=0;whiteSpace=wrap;html=1;labelBackgroundColor=none;strokeColor=#0f100e;strokeWidth=2;align=center;verticalAlign=middle;fontFamily=Helvetica;fontSize=12;fontColor=default;fillColor=#d5e8d4;container=0;" vertex="1" parent="C4_C153arylaI4A7dzpY-82">
          <mxGeometry x="70" y="395" width="130" height="30" as="geometry" />
        </mxCell>
        <mxCell id="C4_C153arylaI4A7dzpY-33" value="&lt;font face=&quot;Comic Sans MS&quot; color=&quot;#000000&quot;&gt;&lt;span style=&quot;font-size: 16px;&quot;&gt;&lt;b&gt;positivo++&lt;/b&gt;&lt;/span&gt;&lt;/font&gt;" style="text;strokeColor=none;align=center;fillColor=none;html=1;verticalAlign=middle;whiteSpace=wrap;rounded=0;fontFamily=Architects Daughter;fontSource=https%3A%2F%2Ffonts.googleapis.com%2Fcss%3Ffamily%3DArchitects%2BDaughter;container=0;" vertex="1" parent="C4_C153arylaI4A7dzpY-82">
          <mxGeometry x="77" y="390" width="120" height="40" as="geometry" />
        </mxCell>
        <mxCell id="C4_C153arylaI4A7dzpY-39" value="" style="rounded=0;whiteSpace=wrap;html=1;labelBackgroundColor=none;strokeColor=#0f100e;strokeWidth=2;align=center;verticalAlign=middle;fontFamily=Helvetica;fontSize=12;fontColor=default;fillColor=#d5e8d4;container=0;" vertex="1" parent="C4_C153arylaI4A7dzpY-82">
          <mxGeometry x="173" y="475" width="130" height="30" as="geometry" />
        </mxCell>
        <mxCell id="C4_C153arylaI4A7dzpY-40" value="&lt;font face=&quot;Comic Sans MS&quot; color=&quot;#000000&quot;&gt;&lt;span style=&quot;font-size: 16px;&quot;&gt;&lt;b&gt;negativo++&lt;/b&gt;&lt;/span&gt;&lt;/font&gt;" style="text;strokeColor=none;align=center;fillColor=none;html=1;verticalAlign=middle;whiteSpace=wrap;rounded=0;fontFamily=Architects Daughter;fontSource=https://fonts.googleapis.com/css?family=Architects+Daughter;container=0;" vertex="1" parent="C4_C153arylaI4A7dzpY-82">
          <mxGeometry x="181" y="470" width="120" height="40" as="geometry" />
        </mxCell>
        <mxCell id="C4_C153arylaI4A7dzpY-46" value="" style="shape=trapezoid;perimeter=trapezoidPerimeter;whiteSpace=wrap;html=1;fixedSize=1;rounded=0;labelBackgroundColor=none;strokeColor=#121211;strokeWidth=2;align=center;verticalAlign=middle;fontFamily=Helvetica;fontSize=12;fontColor=default;fillColor=#d5e8d4;direction=west;container=0;" vertex="1" parent="C4_C153arylaI4A7dzpY-82">
          <mxGeometry x="160" y="590" width="130" height="40" as="geometry">
            <mxRectangle x="-1020" y="-650" width="50" height="40" as="alternateBounds" />
          </mxGeometry>
        </mxCell>
        <mxCell id="C4_C153arylaI4A7dzpY-47" value="&lt;font size=&quot;1&quot; color=&quot;#000000&quot; face=&quot;Comic Sans MS&quot;&gt;&lt;b style=&quot;font-size: 17px;&quot;&gt;num&lt;/b&gt;&lt;/font&gt;" style="text;strokeColor=none;align=center;fillColor=none;html=1;verticalAlign=middle;whiteSpace=wrap;rounded=0;fontFamily=Architects Daughter;fontSource=https://fonts.googleapis.com/css?family=Architects+Daughter;container=0;" vertex="1" parent="C4_C153arylaI4A7dzpY-82">
          <mxGeometry x="194" y="593" width="60" height="30" as="geometry" />
        </mxCell>
        <mxCell id="C4_C153arylaI4A7dzpY-75" value="" style="group;aspect=fixed;" vertex="1" connectable="0" parent="C4_C153arylaI4A7dzpY-82">
          <mxGeometry x="198" y="760" width="50" height="50" as="geometry" />
        </mxCell>
        <mxCell id="C4_C153arylaI4A7dzpY-3" value="" style="strokeWidth=2;html=1;shape=mxgraph.flowchart.start_2;whiteSpace=wrap;rounded=0;labelBackgroundColor=none;strokeColor=#000000;align=center;verticalAlign=middle;fontFamily=Helvetica;fontSize=12;fontColor=default;fillColor=#d5e8d4;container=0;" vertex="1" parent="C4_C153arylaI4A7dzpY-75">
          <mxGeometry width="50" height="50" as="geometry" />
        </mxCell>
        <mxCell id="C4_C153arylaI4A7dzpY-5" value="&lt;font face=&quot;Comic Sans MS&quot; color=&quot;#000000&quot;&gt;&lt;span style=&quot;font-size: 22px;&quot;&gt;&lt;b&gt;F&lt;/b&gt;&lt;/span&gt;&lt;/font&gt;" style="text;strokeColor=none;align=center;fillColor=none;html=1;verticalAlign=middle;whiteSpace=wrap;rounded=0;fontFamily=Architects Daughter;fontSource=https://fonts.googleapis.com/css?family=Architects+Daughter;container=0;" vertex="1" parent="C4_C153arylaI4A7dzpY-75">
          <mxGeometry x="5" y="10" width="40" height="30" as="geometry" />
        </mxCell>
        <mxCell id="C4_C153arylaI4A7dzpY-80" value="" style="group;aspect=fixed;" vertex="1" connectable="0" parent="C4_C153arylaI4A7dzpY-82">
          <mxGeometry x="128" y="680" width="190" height="40" as="geometry" />
        </mxCell>
        <mxCell id="C4_C153arylaI4A7dzpY-78" value="" style="shape=trapezoid;perimeter=trapezoidPerimeter;whiteSpace=wrap;html=1;fixedSize=1;rounded=0;labelBackgroundColor=none;strokeColor=#0F140C;strokeWidth=2;align=center;verticalAlign=middle;fontFamily=Helvetica;fontSize=12;fontColor=default;fillColor=#d5e8d4;" vertex="1" parent="C4_C153arylaI4A7dzpY-80">
          <mxGeometry width="190" height="40" as="geometry" />
        </mxCell>
        <mxCell id="C4_C153arylaI4A7dzpY-79" value="&lt;font size=&quot;1&quot; face=&quot;Comic Sans MS&quot; color=&quot;#000000&quot;&gt;&lt;b style=&quot;font-size: 17px;&quot;&gt;positivo, negativo&lt;/b&gt;&lt;/font&gt;" style="text;strokeColor=none;align=center;fillColor=none;html=1;verticalAlign=middle;whiteSpace=wrap;rounded=0;fontFamily=Architects Daughter;fontSource=https://fonts.googleapis.com/css?family=Architects+Daughter;container=0;" vertex="1" parent="C4_C153arylaI4A7dzpY-80">
          <mxGeometry x="15" width="160" height="40" as="geometry" />
        </mxCell>
        <mxCell id="C4_C153arylaI4A7dzpY-81" value="" style="line;strokeWidth=2;direction=south;html=1;hachureGap=4;fontFamily=Architects Daughter;fontSource=https://fonts.googleapis.com/css?family=Architects+Daughter;strokeColor=#000000;container=0;" vertex="1" parent="C4_C153arylaI4A7dzpY-82">
          <mxGeometry x="219" y="720" width="10" height="40" as="geometry" />
        </mxCell>
      </root>
    </mxGraphModel>
  </diagram>
</mxfile>
